<?xml version="1.0" encoding="iso-8859-1"?>
<!-- Generator: Adobe Illustrator 19.0.0, SVG Export Plug-In . SVG Version: 6.00 Build 0)  -->
<svg version="1.1" id="Layer_1" xmlns="http://www.w3.org/2000/svg" xmlns:xlink="http://www.w3.org/1999/xlink" x="0px" y="0px"
	 viewBox="0 0 512 512" style="enable-background:new 0 0 512 512;" xml:space="preserve">
<polygon style="fill:#FFE6B8;" points="501.801,120.144 142.319,120.144 142.319,88.733 64.716,88.733 64.716,120.144 
	10.199,120.144 10.199,380.704 501.801,380.704 "/>
<rect x="200.241" y="380.706" style="fill:#CCCCCC;" width="111.508" height="73.169"/>
<polygon style="fill:#D35B38;" points="64.716,120.144 64.716,88.733 142.319,88.733 142.319,120.144 501.801,120.144 
	501.801,58.122 10.199,58.122 10.199,120.144 "/>
<path style="fill:#CCCCCC;" d="M465.084,341.208v-34.78c0,0,0-0.001-0.001-0.001h-22.485c-1.916-8.23-5.165-15.946-9.503-22.916
	c-0.001-0.001,0-0.002,0-0.002l15.907-15.907v-0.001l-24.593-24.593h-0.001l-15.907,15.907c-0.001,0.001-0.002,0.001-0.003,0
	c-6.969-4.338-14.686-7.586-22.916-9.503v-22.485v-0.001h-34.78h-0.001v22.486c-8.23,1.916-15.946,5.165-22.916,9.503
	c-0.001,0.001-0.002,0-0.003,0l-15.906-15.906h-0.001l-24.593,24.593v0.001l15.906,15.906c0.001,0.001,0.001,0.002,0,0.003
	c-4.338,6.969-7.586,14.686-9.503,22.916H271.3h-0.001v34.78c0,0,0,0.001,0.001,0.001h22.485c1.916,8.23,5.165,15.946,9.503,22.916
	c0.001,0.001,0,0.002,0,0.003l-15.906,15.906v0.001l24.593,24.593h0.001l15.906-15.906c0.001-0.001,0.002-0.001,0.003,0
	c6.969,4.338,14.686,7.586,22.916,9.503v22.485c0,0,0,0.001,0.001,0.001h34.78l0.001-0.001v-22.485
	c8.23-1.916,15.946-5.165,22.916-9.503c0.001-0.001,0.002,0,0.003,0l15.906,15.906h0.001l24.593-24.593v-0.001l-15.906-15.906
	c-0.001-0.001-0.001-0.002,0-0.003c4.338-6.969,7.586-14.686,9.503-22.916L465.084,341.208
	C465.084,341.209,465.084,341.209,465.084,341.208z M368.191,356.034c-17.793,0-32.215-14.424-32.215-32.215
	c0-17.791,14.424-32.215,32.215-32.215c17.791,0,32.215,14.424,32.215,32.215C400.406,341.61,385.984,356.034,368.191,356.034z"/>
<g>
	<path style="fill:#4D3D36;" d="M358.135,464.077c5.632,0,10.199-4.566,10.199-10.199s-4.567-10.199-10.199-10.199h-36.179v-34.607
		l7.693-7.693c3.546,1.766,7.204,3.283,10.952,4.543v14.789c0,2.705,1.075,5.3,2.987,7.212c1.913,1.912,4.507,2.987,7.212,2.987
		l34.782-0.001c5.633,0,10.199-4.566,10.199-10.199V405.92c3.749-1.259,7.407-2.776,10.951-4.543l10.462,10.461
		c3.984,3.983,10.44,3.983,14.425,0l20.938-20.937h49.243c5.632,0,10.199-4.566,10.199-10.199V58.122
		c0-5.633-4.567-10.199-10.199-10.199H10.199C4.567,47.923,0,52.489,0,58.122v322.581c0,5.633,4.567,10.199,10.199,10.199h179.845
		v52.776h-36.179c-5.632,0-10.199,4.566-10.199,10.199s4.567,10.199,10.199,10.199H358.135z M20.398,68.321h471.203v41.623H152.518
		V88.733c0-5.633-4.567-10.199-10.199-10.199H64.716c-5.632,0-10.199,4.566-10.199,10.199v21.211H20.398V68.321z M210.442,443.679
		v-52.776h73.383l17.732,17.731v35.044H210.442z M425.913,371.368l8.665,8.666l-10.172,10.171l-8.693-8.694
		c-0.775-0.775-1.671-1.421-2.652-1.911c-2.87-1.436-6.254-1.436-9.124,0c-0.284,0.142-0.56,0.297-0.829,0.464
		c-6.147,3.826-12.821,6.594-19.838,8.228c-4.618,1.075-7.886,5.191-7.886,9.933l-0.001,12.287H361v-12.287
		c0-4.742-3.268-8.859-7.886-9.934c-7.018-1.634-13.692-4.401-19.839-8.228c-0.269-0.167-0.545-0.322-0.829-0.464
		c-2.87-1.435-6.254-1.435-9.124,0c-0.981,0.49-1.876,1.135-2.652,1.91l-8.694,8.694l-10.171-10.171l8.665-8.666
		c1.9-1.886,3.017-4.481,3.017-7.243c0-1.905-0.533-3.772-1.54-5.389c-3.827-6.148-6.595-12.823-8.229-19.841
		c-1.075-4.618-5.191-7.886-9.933-7.886h-12.287l0.001-14.383h12.286c4.742,0,8.858-3.268,9.933-7.886
		c1.635-7.017,4.402-13.692,8.229-19.841c1.006-1.617,1.54-3.484,1.54-5.389c0-2.763-1.117-5.358-3.017-7.243l-8.665-8.666
		l10.172-10.171l8.693,8.694c0.775,0.775,1.671,1.421,2.652,1.911c2.871,1.437,6.255,1.436,9.124,0
		c0.284-0.142,0.56-0.297,0.829-0.464c6.147-3.826,12.821-6.594,19.839-8.228c4.618-1.075,7.886-5.191,7.886-9.934V237.12h14.384
		v12.287c0,4.742,3.268,8.858,7.886,9.934c7.017,1.634,13.691,4.402,19.838,8.228c0.269,0.167,0.545,0.322,0.829,0.464
		c2.871,1.436,6.255,1.435,9.124,0c0.981-0.49,1.876-1.135,2.652-1.91l8.694-8.694l10.171,10.171l-8.665,8.666
		c-1.9,1.886-3.017,4.481-3.017,7.243c0,1.905,0.533,3.772,1.54,5.389c3.827,6.148,6.595,12.823,8.229,19.841
		c1.075,4.618,5.191,7.886,9.933,7.886h12.287v14.383h-12.287c-4.742,0-8.858,3.268-9.933,7.886
		c-1.635,7.017-4.402,13.692-8.229,19.84c-1.006,1.617-1.54,3.484-1.54,5.389C422.896,366.888,424.012,369.482,425.913,371.368z
		 M20.398,370.504V130.343h44.318c5.632,0,10.199-4.566,10.199-10.199V98.932h57.204v21.211c0,5.633,4.567,10.199,10.199,10.199
		h349.283v240.162h-37.705l-8.144-8.144c1.765-3.546,3.283-7.204,4.543-10.952h14.789c5.633,0,10.199-4.567,10.199-10.199
		l-0.001-34.781c0-5.632-4.567-10.199-10.199-10.199h-14.789c-1.259-3.749-2.776-7.406-4.542-10.952l10.461-10.462
		c3.983-3.983,3.983-10.442,0-14.425l-24.594-24.593c-3.984-3.983-10.44-3.983-14.425,0l-10.461,10.461
		c-3.546-1.766-7.203-3.283-10.951-4.543l-0.001-14.79c0-5.633-4.567-10.199-10.199-10.199l-34.781,0.001
		c-5.633,0-10.199,4.566-10.199,10.199v14.789c-3.75,1.26-7.407,2.776-10.952,4.543l-10.462-10.461
		c-3.984-3.983-10.44-3.983-14.425,0l-24.593,24.593c-3.983,3.983-3.983,10.442,0,14.425l10.461,10.462
		c-1.765,3.546-3.283,7.204-4.543,10.952h-14.789c-5.633,0-10.199,4.567-10.199,10.199l0.001,34.781
		c0,5.632,4.567,10.199,10.199,10.199h14.789c1.259,3.749,2.776,7.406,4.542,10.952l-8.144,8.144H20.398z"/>
	<path style="fill:#4D3D36;" d="M467.124,99.436h2.04c5.632,0,10.199-4.566,10.199-10.199c0-5.633-4.567-10.199-10.199-10.199h-2.04
		c-5.632,0-10.199,4.566-10.199,10.199C456.924,94.87,461.492,99.436,467.124,99.436z"/>
	<path style="fill:#4D3D36;" d="M430.406,99.436h2.04c5.632,0,10.199-4.566,10.199-10.199c0-5.633-4.567-10.199-10.199-10.199h-2.04
		c-5.632,0-10.199,4.566-10.199,10.199C420.207,94.87,424.774,99.436,430.406,99.436z"/>
	<path style="fill:#4D3D36;" d="M393.689,99.436h2.04c5.632,0,10.199-4.566,10.199-10.199c0-5.633-4.567-10.199-10.199-10.199h-2.04
		c-5.632,0-10.199,4.566-10.199,10.199C383.49,94.87,388.057,99.436,393.689,99.436z"/>
	<path style="fill:#4D3D36;" d="M441.626,191.745h6.12c5.632,0,10.199-4.566,10.199-10.199s-4.567-10.199-10.199-10.199h-6.12
		c-5.632,0-10.199,4.566-10.199,10.199S435.993,191.745,441.626,191.745z"/>
	<path style="fill:#4D3D36;" d="M54.056,181.546c0,5.633,4.567,10.199,10.199,10.199h341.673c5.632,0,10.199-4.566,10.199-10.199
		s-4.567-10.199-10.199-10.199H64.255C58.623,171.347,54.056,175.913,54.056,181.546z"/>
	<path style="fill:#4D3D36;" d="M288.637,211.124H64.255c-5.632,0-10.199,4.566-10.199,10.199c0,5.633,4.567,10.199,10.199,10.199
		h224.382c5.632,0,10.199-4.566,10.199-10.199C298.837,215.69,294.269,211.124,288.637,211.124z"/>
	<path style="fill:#4D3D36;" d="M368.191,281.403c-23.388,0-42.414,19.028-42.414,42.414c0,23.387,19.027,42.415,42.414,42.415
		s42.414-19.028,42.414-42.414C410.606,300.432,391.579,281.403,368.191,281.403z M368.191,345.835
		c-12.139,0-22.016-9.877-22.016-22.016s9.877-22.016,22.016-22.016s22.016,9.877,22.016,22.016S380.33,345.835,368.191,345.835z"/>
</g>
<g>
</g>
<g>
</g>
<g>
</g>
<g>
</g>
<g>
</g>
<g>
</g>
<g>
</g>
<g>
</g>
<g>
</g>
<g>
</g>
<g>
</g>
<g>
</g>
<g>
</g>
<g>
</g>
<g>
</g>
</svg>
