<?xml version="1.0" encoding="iso-8859-1"?>
<!-- Generator: Adobe Illustrator 19.0.0, SVG Export Plug-In . SVG Version: 6.00 Build 0)  -->
<svg version="1.1" id="Layer_1" xmlns="http://www.w3.org/2000/svg" xmlns:xlink="http://www.w3.org/1999/xlink" x="0px" y="0px"
	 viewBox="0 0 512 512" style="enable-background:new 0 0 512 512;" xml:space="preserve">
<path style="fill:#ABECEC;" d="M305.021,471.149c0-18.05,0-70.809,0-70.809h-98.043v54.468l21.787,38.128l76.255,10.894h32.681
	C319.652,503.83,305.021,489.199,305.021,471.149z"/>
<path style="fill:#D5F6F5;" d="M272.34,471.149v-16.34h-65.362v16.34c0,18.05-14.631,32.681-32.681,32.681h130.723
	C286.972,503.83,272.34,489.199,272.34,471.149z"/>
<path style="fill:#42C8C6;" d="M471.149,51.745h-32.681l32.681,348.596l32.681-43.574V84.426
	C503.83,66.451,489.123,51.745,471.149,51.745z"/>
<path style="fill:#81E3E2;" d="M471.149,84.426c0-17.974-14.706-32.681-32.681-32.681H40.851c-17.974,0-32.681,14.706-32.681,32.681
	v272.34l462.979,43.574V84.426z"/>
<path style="fill:#ABECEC;" d="M471.149,356.766l-32.681,65.362h32.681c17.974,0,32.681-14.706,32.681-32.681v-32.681H471.149z"/>
<polygon style="fill:#FEDC3D;" points="321.362,125.821 321.362,356.766 266.894,364.936 266.894,111.463 "/>
<rect x="234.213" y="111.463" style="fill:#FFE777;" width="54.468" height="253.473"/>
<polygon style="fill:#FFF1B1;" points="190.638,356.766 190.638,125.821 256,97.106 256,378.553 "/>
<polygon style="fill:#FFDBCC;" points="321.362,125.821 287.773,65.362 256,49.021 224.227,65.362 190.638,125.821 "/>
<polygon style="fill:#737373;" points="256,8.17 224.227,65.362 287.773,65.362 "/>
<path style="fill:#D5F6F5;" d="M471.149,389.447v-32.681H8.17v32.681c0,17.974,14.706,32.681,32.681,32.681h397.617
	C456.443,422.128,471.149,407.421,471.149,389.447z"/>
<path d="M471.149,43.574H317.594c-4.513,0-8.17,3.657-8.17,8.17s3.657,8.17,8.17,8.17h153.555c13.515,0,24.511,10.996,24.511,24.511
	v264.17H329.532V125.821c0-0.325-0.024-0.644-0.061-0.96c-0.01-0.082-0.025-0.161-0.037-0.244c-0.036-0.243-0.082-0.483-0.138-0.719
	c-0.02-0.082-0.04-0.162-0.063-0.244c-0.07-0.255-0.153-0.505-0.246-0.751c-0.02-0.051-0.036-0.103-0.057-0.156
	c-0.122-0.301-0.259-0.593-0.415-0.874c-0.011-0.023-33.549-60.392-33.549-60.392c-0.023-0.04-31.824-57.282-31.824-57.282
	C261.701,1.609,258.967,0,256,0c-2.967,0-5.701,1.609-7.143,4.202l-31.801,57.242c-0.023,0.04-33.561,60.409-33.561,60.409
	c-0.166,0.303-0.303,0.596-0.425,0.895c-0.021,0.052-0.037,0.105-0.058,0.157c-0.094,0.245-0.175,0.495-0.245,0.749
	c-0.023,0.081-0.042,0.162-0.063,0.244c-0.057,0.236-0.102,0.476-0.138,0.719c-0.012,0.082-0.027,0.161-0.037,0.244
	c-0.037,0.316-0.061,0.635-0.061,0.96v222.774H16.34V84.426c0-13.515,10.996-24.511,24.511-24.511h153.555
	c4.513,0,8.17-3.657,8.17-8.17s-3.657-8.17-8.17-8.17H40.851C18.325,43.574,0,61.9,0,84.426v305.021
	c0,22.526,18.325,40.851,40.851,40.851h256v40.851c0,9.19,3.051,17.678,8.192,24.511h-98.086c5.141-6.832,8.192-15.321,8.192-24.511
	v-16.34c0-4.513-3.657-8.17-8.17-8.17s-8.17,3.657-8.17,8.17v16.34c0,13.515-10.996,24.511-24.511,24.511h-65.363
	c-4.513,0-8.17,3.657-8.17,8.17s3.657,8.17,8.17,8.17h294.128c4.513,0,8.17-3.657,8.17-8.17s-3.657-8.17-8.17-8.17h-65.361
	c-13.515,0-24.511-10.996-24.511-24.511v-40.851h157.957c22.526,0,40.851-18.325,40.851-40.851V84.426
	C512,61.9,493.675,43.574,471.149,43.574z M264.17,348.596V133.991h49.021v214.604H264.17z M229.034,73.532h53.931l24.511,44.119
	H204.523L229.034,73.532z M256,24.993l17.887,32.198h-35.775L256,24.993z M198.809,133.991h49.021v214.604h-49.021V133.991z
	 M471.149,413.957H40.851c-13.515,0-24.511-10.996-24.511-24.511v-24.511H495.66v24.511
	C495.66,402.961,484.664,413.957,471.149,413.957z"/>
<circle cx="256" cy="389.447" r="8.17"/>
<g>
</g>
<g>
</g>
<g>
</g>
<g>
</g>
<g>
</g>
<g>
</g>
<g>
</g>
<g>
</g>
<g>
</g>
<g>
</g>
<g>
</g>
<g>
</g>
<g>
</g>
<g>
</g>
<g>
</g>
</svg>
