<?xml version="1.0" encoding="iso-8859-1"?>
<!-- Generator: Adobe Illustrator 16.0.0, SVG Export Plug-In . SVG Version: 6.00 Build 0)  -->
<!DOCTYPE svg PUBLIC "-//W3C//DTD SVG 1.1//EN" "http://www.w3.org/Graphics/SVG/1.1/DTD/svg11.dtd">
<svg version="1.1" id="Capa_1" xmlns="http://www.w3.org/2000/svg" xmlns:xlink="http://www.w3.org/1999/xlink" x="0px" y="0px"
	 width="564.49px" height="564.491px" viewBox="0 0 564.49 564.491" style="enable-background:new 0 0 564.49 564.491;"
	 xml:space="preserve">
<g>
	<g>
		<path d="M67.001,484.772c20.557,0,37.216-16.665,37.216-37.216V242.854c0-20.557-16.665-37.215-37.216-37.215h-29.78
			C16.665,205.639,0,222.303,0,242.854v204.702c0,20.557,16.665,37.216,37.222,37.216H67.001z"/>
		<path d="M523.406,205.632H399.924h-31.519H283.98c-8.22,0-12.645-6.279-9.878-14.021l33.402-93.538
			c2.767-7.742-1.395-15.992-9.528-17.179c-18.054-2.631-49.015-2.778-69.939,20.802c-5.459,6.151-11.806,17.98-16.414,24.786
			c-21.089,31.169-51.64,57.259-68.305,70.264c-6.481,5.061-11.94,15.551-11.94,23.77v249.365c0,8.226,6.665,14.891,14.89,14.891
			h221.397c8.226,0,19.253-5.037,24.639-11.249l12.754-14.719c5.386-6.212,10.771-17.84,12.026-25.961l20.723-133.948h85.6
			c22.693,0,41.084-20.875,41.084-46.628S546.1,205.632,523.406,205.632z"/>
	</g>
</g>
<g>
</g>
<g>
</g>
<g>
</g>
<g>
</g>
<g>
</g>
<g>
</g>
<g>
</g>
<g>
</g>
<g>
</g>
<g>
</g>
<g>
</g>
<g>
</g>
<g>
</g>
<g>
</g>
<g>
</g>
</svg>
