<?xml version="1.0" encoding="iso-8859-1"?>
<!-- Generator: Adobe Illustrator 19.0.0, SVG Export Plug-In . SVG Version: 6.00 Build 0)  -->
<svg version="1.1" id="Layer_1" xmlns="http://www.w3.org/2000/svg" xmlns:xlink="http://www.w3.org/1999/xlink" x="0px" y="0px"
	 viewBox="0 0 512.002 512.002" style="enable-background:new 0 0 512.002 512.002;" xml:space="preserve">
<g>
	<path style="fill:#3E3D42;" d="M94.722,511.94c-9.213,0-16.682-7.469-16.682-16.682v-61.467c0-6.328,3.581-12.111,9.245-14.932
		l79.021-39.36c8.247-4.107,18.262-0.752,22.369,7.495c4.107,8.247,0.753,18.262-7.495,22.37l-69.776,34.755v51.14
		C111.404,504.471,103.935,511.94,94.722,511.94z"/>
	<path style="fill:#3E3D42;" d="M16.67,411.552c-2.705,0-5.446-0.658-7.987-2.047c-8.084-4.42-11.054-14.555-6.636-22.639
		l39.518-72.288c3.216-5.881,9.641-9.267,16.306-8.596l84.46,8.491c9.166,0.922,15.851,9.1,14.929,18.267
		c-0.922,9.166-9.084,15.853-18.268,14.929l-73.457-7.386l-34.214,62.586C28.293,408.411,22.572,411.552,16.67,411.552z"/>
	<path style="fill:#3E3D42;" d="M16.67,294.779c-2.705,0-5.446-0.658-7.987-2.047c-8.084-4.42-11.054-14.555-6.636-22.639
		l39.518-72.288c2.182-3.989,5.898-6.916,10.287-8.103c4.39-1.186,9.074-0.528,12.967,1.821l93.664,56.5
		c7.889,4.759,10.426,15.013,5.667,22.901c-4.757,7.888-15.009,10.427-22.901,5.667l-78.758-47.51l-31.168,57.015
		C28.293,291.638,22.572,294.779,16.67,294.779z"/>
	<path style="fill:#3E3D42;" d="M195.043,228.438c-4.285,0-8.567-1.64-11.827-4.918L77.74,117.478
		c-6.469-6.505-6.473-17.012-0.008-23.52l88.375-88.97c6.494-6.537,17.054-6.572,23.593-0.079
		c6.536,6.493,6.572,17.054,0.078,23.591l-76.69,77.206l93.781,94.286c6.498,6.533,6.469,17.094-0.063,23.591
		C203.551,226.821,199.296,228.438,195.043,228.438z"/>
	<path style="fill:#3E3D42;" d="M417.238,511.94c-9.213,0-16.682-7.469-16.682-16.682v-51.14l-69.776-34.755
		c-8.247-4.108-11.603-14.123-7.495-22.37c4.108-8.246,14.124-11.602,22.369-7.495l79.021,39.36
		c5.664,2.821,9.245,8.604,9.245,14.932v61.467C433.92,504.471,426.451,511.94,417.238,511.94z"/>
	<path style="fill:#3E3D42;" d="M495.331,411.552c-5.903,0-11.622-3.14-14.653-8.683l-34.214-62.586l-73.457,7.386
		c-9.175,0.924-17.347-5.764-18.268-14.929c-0.922-9.167,5.763-17.346,14.929-18.267l84.46-8.491
		c6.666-0.674,13.091,2.716,16.306,8.596l39.518,72.288c4.42,8.084,1.448,18.22-6.636,22.639
		C500.777,410.892,498.035,411.552,495.331,411.552z"/>
	<path style="fill:#3E3D42;" d="M495.331,294.779c-5.903,0-11.622-3.14-14.653-8.683l-31.168-57.015l-78.758,47.51
		c-7.892,4.758-18.142,2.221-22.901-5.667c-4.759-7.889-2.222-18.142,5.667-22.901l93.664-56.5c3.895-2.349,8.58-3.005,12.967-1.821
		c4.39,1.186,8.105,4.113,10.287,8.103l39.518,72.288c4.42,8.084,1.448,18.22-6.636,22.639
		C500.777,294.12,498.035,294.779,495.331,294.779z"/>
	<path style="fill:#3E3D42;" d="M316.959,228.438c-4.255,0-8.509-1.617-11.764-4.854c-6.533-6.497-6.56-17.059-0.063-23.591
		l93.781-94.286L322.223,28.5c-6.494-6.536-6.458-17.099,0.078-23.591c6.537-6.491,17.098-6.457,23.593,0.079l88.375,88.97
		c6.465,6.508,6.463,17.015-0.008,23.52L328.785,223.52C325.527,226.797,321.243,228.438,316.959,228.438z"/>
</g>
<path style="fill:#5C5C5C;" d="M256.209,79.024c-36.852,0-66.727,29.875-66.727,66.727s29.875,66.727,66.727,66.727
	s66.727-29.875,66.727-66.727S293.062,79.024,256.209,79.024z"/>
<path style="fill:#3E3D42;" d="M256.209,79.024v133.455c36.852,0,66.727-29.875,66.727-66.727S293.062,79.024,256.209,79.024z"/>
<path style="fill:#787680;" d="M256.209,179.115c-73.705,0-133.455,59.75-133.455,133.455s59.75,133.455,133.455,133.455
	s133.455-59.75,133.455-133.455C389.664,238.864,329.914,179.115,256.209,179.115z"/>
<path style="fill:#57565C;" d="M256.209,179.115v266.909c73.705,0,133.455-59.75,133.455-133.455
	C389.664,238.864,329.914,179.115,256.209,179.115z"/>
<path style="fill:#ED539D;" d="M255.788,378.156c-17.838,0-34.595-6.933-47.184-19.521c-6.515-6.515-6.515-17.077,0-23.591
	c6.514-6.515,17.077-6.515,23.591,0c6.287,6.287,14.667,9.75,23.593,9.75s17.305-3.462,23.591-9.749
	c6.514-6.515,17.077-6.515,23.591,0c6.515,6.515,6.515,17.077,0,23.591C290.384,371.223,273.626,378.156,255.788,378.156z"/>
<path style="fill:#EA348B;" d="M279.379,335.043c-6.188,6.188-14.402,9.631-23.17,9.739v33.364
	c17.681-0.109,34.273-7.022,46.761-19.511c6.515-6.515,6.515-17.077,0-23.591C296.457,328.529,285.893,328.529,279.379,335.043z"/>
<g>
</g>
<g>
</g>
<g>
</g>
<g>
</g>
<g>
</g>
<g>
</g>
<g>
</g>
<g>
</g>
<g>
</g>
<g>
</g>
<g>
</g>
<g>
</g>
<g>
</g>
<g>
</g>
<g>
</g>
</svg>
